<svg width="1400" height="420" viewBox="0 0 1400 420" fill="none" xmlns="http://www.w3.org/2000/svg" role="img" aria-labelledby="title desc">
  <title id="title">Task Trail banner</title>
  <desc id="desc">Date-based checklist and kanban for personal execution flow</desc>
  <defs>
    <linearGradient id="bg" x1="0" y1="0" x2="1400" y2="420" gradientUnits="userSpaceOnUse">
      <stop stop-color="#0F172A"/>
      <stop offset="1" stop-color="#111827"/>
    </linearGradient>
    <linearGradient id="accent" x1="120" y1="100" x2="690" y2="360" gradientUnits="userSpaceOnUse">
      <stop stop-color="#8B5CF6" stop-opacity="0.35"/>
      <stop offset="1" stop-color="#22C55E" stop-opacity="0.18"/>
    </linearGradient>
  </defs>
  <rect width="1400" height="420" fill="url(#bg)"/>
  <circle cx="230" cy="86" r="120" fill="#7C3AED" opacity="0.15"/>
  <circle cx="625" cy="338" r="150" fill="#22C55E" opacity="0.12"/>
  <rect x="86" y="70" width="620" height="280" rx="28" fill="#111827" stroke="#334155"/>
  <rect x="122" y="114" width="160" height="18" rx="9" fill="#E5E7EB"/>
  <rect x="122" y="160" width="258" height="56" rx="16" fill="#1F2937" stroke="#4B5563"/>
  <rect x="146" y="178" width="128" height="18" rx="9" fill="#F9FAFB"/>
  <rect x="394" y="160" width="258" height="56" rx="16" fill="#1F2937" stroke="#8B5CF6"/>
  <rect x="418" y="178" width="144" height="18" rx="9" fill="#F5F3FF"/>
  <rect x="122" y="234" width="530" height="82" rx="20" fill="#0F172A" stroke="#475569"/>
  <path d="M166 277H320" stroke="#94A3B8" stroke-width="14" stroke-linecap="round"/>
  <path d="M166 248H248" stroke="#C4B5FD" stroke-width="12" stroke-linecap="round"/>
  <path d="M166 304H288" stroke="#86EFAC" stroke-width="12" stroke-linecap="round"/>
  <path d="M514 246L538 270L592 216" stroke="#A78BFA" stroke-width="18" stroke-linecap="round" stroke-linejoin="round"/>
  <rect x="776" y="64" width="550" height="292" rx="32" fill="url(#accent)"/>
  <text x="800" y="152" fill="#F8FAFC" font-family="Arial, sans-serif" font-size="60" font-weight="700">Task Trail</text>
  <text x="802" y="194" fill="#CBD5E1" font-family="Arial, sans-serif" font-size="22">Checklist, kanban, archive, and throughput in one workflow</text>
  <rect x="802" y="238" width="238" height="42" rx="21" fill="#111827" stroke="#475569"/>
  <text x="828" y="265" fill="#DDD6FE" font-family="Menlo, monospace" font-size="17">npm install && npm run dev</text>
  <text x="802" y="316" fill="#94A3B8" font-family="Arial, sans-serif" font-size="18">Inbox  •  In Progress  •  Done  •  Reports</text>
</svg>